# xmcd
#
# Track frame offsets: 
#        150
#        27470
#        56857
#        77735
#        101837
#        125895
#        151632
#        176545
#        196492
#        223487
#
# Disc length: 3196 seconds
#
# Revision: 0
# Processed by: cddbd v1.5.2PL0 Copyright (c) Steve Scherf et al.
# Submitted via: ExactAudioCopy v1.0b3
#
DISCID=940c7a0a
DTITLE=Various Artist - Hoa Thuong Nho Ai
DYEAR=1994
DGENRE=
TTITLE0=Dinh Van - Duong ve hai thon
TTITLE1=Phuong Dung - Hoa thuong nho ai
TTITLE2=Bao yen - Tra nhau ngay thang cu
TTITLE3=Nha Phuong - Tinh ca tren dong song Quan Ho
TTITLE4=Le Tuan - Mua thu nam ngoai
TTITLE5=Dinh Van - Con thuong rau dang moc sau he
TTITLE6=Bao Yen - Tinh Me
TTITLE7=Nha Phuong - Nang len xom ngheo
TTITLE8=Phuong Dung - Canh hoa pensée
TTITLE9=Le Tuan - San khau va cuoc doi
EXTD=
EXTT0=
EXTT1=
EXTT2=
EXTT3=
EXTT4=
EXTT5=
EXTT6=
EXTT7=
EXTT8=
EXTT9=
PLAYORDER=
